<svg id="Plan1" xmlns:rdf="http://www.w3.org/1999/02/22-rdf-syntax-ns#" xmlns="http://www.w3.org/2000/svg" xml:space="preserve" height="100%" viewBox="0 0 1655.761 1657.979" width="100%" version="1.1" enable-background="new 0 0 1655.761 1657.979" xmlns:cc="http://creativecommons.org/ns#" xmlns:dc="http://purl.org/dc/elements/1.1/"><metadata id="metadata201"><rdf:RDF><cc:Work rdf:about=""><dc:format>image/svg+xml</dc:format><dc:type rdf:resource="http://purl.org/dc/dcmitype/StillImage"/><dc:title/></cc:Work></rdf:RDF></metadata><polygon id="17" points="273.6,417.33,403.09,463.92,450.24,402.14,308.5,265.28,273.6,417.33" fill="#FFF"/><polygon id="18" points="310.33,264.92,425.61,238.59,499.19,364.35,452.65,400.3,310.33,264.92" fill="#FFF"/><polygon id="19" points="425.61,238.59,530.66,213.08,568.13,333.06,499.2,364.35,425.61,238.59" fill="#FFF"/><polygon id="20" points="533.94,211.89,628.73,193.6,631.33,323.49,570.13,333.04,533.93,211.89" fill="#FFF"/><polygon id="21" points="632.59,191.77,634.06,323.83,703.84,329.19,742.17,171.22,632.58,191.78" fill="#FFF"/><polygon id="85" fill-opacity="0.5" points="743.42,171.04,743.09,172.58,732.33,223.2,819.98,257.73,881.15,168.94,842.65,147.02" fill="#FFF"/><polygon id="22" fill-opacity="0.5" points="731.92,227.33,706.09,331.04,760.81,349.69,817.84,261.95" fill="#FFF"/><polygon id="23" points="821.22,264.34,765.4,351.32,811.2,383.49,883.26,303.84,821.22,264.34" fill="#FFF"/><polygon id="84" points="821.87,259.33,886.53,302,958.63,224.66,884.5,170.52,821.87,259.33" fill="#FFF"/><polygon id="67" fill-opacity="0.5" points="938.65,1109.8,951.4,1031.8,842.56,1014.7,829.82,1092.7" fill="#FFF"/><polygon id="69" fill-opacity="0.5" points="911.83,1274,924.21,1198.2,815.38,1181.2,803,1256.9" fill="#FFF"/><polygon id="68" fill-opacity="0.5" points="924.69,1195.2,938.17,1112.7,829.34,1095.7,815.86,1178.2" fill="#FFF"/><polygon id="78" fill-opacity="0.5" points="1103.7,800.31,1116.3,723.03,1010.1,705.68,997.37,783.66" fill="#FFF"/><polygon id="65" fill-opacity="0.5" points="965.42,945.88,977.98,869.01,869.15,851.97,856.59,928.84" fill="#FFF"/><polygon id="66" fill-opacity="0.5" points="951.88,1028.8,964.94,948.85,856.11,931.8,843.05,1011.8" fill="#FFF"/><polygon id="64" fill-opacity="0.5" points="882.74,768.75,869.63,849.01,978.46,866.05,991.57,785.79" fill="#FFF"/><polygon id="75" fill-opacity="0.5" points="970.25,949.68,957.19,1029.6,1063.5,1046.3,1076.6,966.33" fill="#FFF"/><polygon id="77" fill-opacity="0.5" points="996.89,786.62,983.78,866.88,1090.1,883.53,1103.2,803.27" fill="#FFF"/><polygon id="63" fill-opacity="0.5" points="992.06,782.83,1004.8,704.81,896.09,687.06,883.23,765.79" fill="#FFF"/><polygon id="72" fill-opacity="0.5" points="1035.9,1215.7,929.52,1199,917.15,1274.8,1023.5,1291.4" fill="#FFF"/><polygon id="73" fill-opacity="0.5" points="943.48,1113.6,930,1196.1,1036.3,1212.7,1049.8,1130.2" fill="#FFF"/><polygon id="76" fill-opacity="0.5" points="983.29,869.84,970.74,946.72,1077.1,963.37,1089.6,886.49" fill="#FFF"/><polygon id="74" fill-opacity="0.5" points="956.71,1032.6,943.97,1110.6,1050.3,1127.2,1063,1049.2" fill="#FFF"/><polygon id="95" fill-opacity="0.5" points="1201.7,1152.8,1214.4,1074.8,1105.6,1057.7,1092.8,1135.7" fill="#FFF"/><polygon id="97" fill-opacity="0.5" points="1174.8,1317,1187.2,1241.2,1078.4,1224.2,1066,1299.9" fill="#FFF"/><polygon id="96" fill-opacity="0.5" points="1187.7,1238.2,1201.2,1155.7,1092.3,1138.7,1078.9,1221.2" fill="#FFF"/><polygon id="106" fill-opacity="0.5" points="1366.7,843.31,1379.3,766.03,1273.1,748.68,1260.4,826.66" fill="#FFF"/><polygon id="93" fill-opacity="0.5" points="1228.4,988.88,1241,912.01,1132.2,894.97,1119.6,971.84" fill="#FFF"/><polygon id="94" fill-opacity="0.5" points="1214.9,1071.8,1227.9,991.85,1119.1,974.8,1106,1054.8" fill="#FFF"/><polygon id="92" fill-opacity="0.5" points="1145.7,811.75,1132.6,892.01,1241.5,909.05,1254.6,828.79" fill="#FFF"/><polygon id="103" fill-opacity="0.5" points="1233.3,992.68,1220.2,1072.6,1326.5,1089.3,1339.6,1009.3" fill="#FFF"/><polygon id="105" fill-opacity="0.5" points="1259.9,829.62,1246.8,909.88,1353.1,926.53,1366.2,846.27" fill="#FFF"/><polygon id="91" fill-opacity="0.5" points="1255.1,825.83,1267.8,747.81,1159.1,730.06,1146.2,808.79" fill="#FFF"/><polygon id="100" fill-opacity="0.5" points="1298.9,1258.7,1192.5,1242,1180.1,1317.8,1286.5,1334.4" fill="#FFF"/><polygon id="101" fill-opacity="0.5" points="1206.5,1156.6,1193,1239.1,1299.3,1255.7,1312.8,1173.2" fill="#FFF"/><polygon id="104" fill-opacity="0.5" points="1246.3,912.84,1233.7,989.72,1340.1,1006.4,1352.6,929.49" fill="#FFF"/><polygon id="102" fill-opacity="0.5" points="1219.7,1075.6,1207,1153.6,1313.3,1170.2,1326,1092.2" fill="#FFF"/><polygon id="118" fill-opacity="0.5" points="1532.1,790.68,1519.4,868.66,1615.3,883.68,1633.7,836.24,1638.3,808.03" fill="#FFF"/><polygon id="119" fill-opacity="0.5" points="1418.1,772.06,1405.2,850.79,1514.1,867.83,1526.8,789.81" fill="#FFF"/><polygon id="61" points="889.31,478.27,914.2,566.23,1022.7,558.44,986.91,429.85,889.34,478.27" fill="#FFF"/><polygon id="62" points="914.52,569.22,915.84,596.27,911.51,645.15,1018.5,662.32,1024.5,595.05,1023,561.43,914.52,569.22" fill="#FFF"/><polygon id="60" points="985.6,427.16,918.34,331.13,844.28,411.21,888,475.58,985.6,427.17" fill="#FFF"/><polygon id="81" points="1125.3,496.71,1098.9,409.7,999.65,448.93,1019.8,513.98,1125.3,496.71" fill="#FFF"/><polygon id="80" points="1125.8,499.66,1020.3,516.93,1028.2,592.63,1135.2,589.06,1125.8,499.66" fill="#FFF"/><polygon id="82" points="965.27,383.86,998.45,446.16,1097.7,406.92,1054.1,324.68,965.35,383.86" fill="#FFF"/><polygon id="83" points="1052.4,322.18,993.55,249.77,920.92,328.3,963.59,381.36,1052.4,322.17" fill="#FFF"/><polygon id="79" points="1028.3,595.63,1022.3,662.92,1128.2,679.91,1135.3,596.27,1135.3,592.06,1028.3,595.63" fill="#FFF"/><circle id="circle121" fill-opacity="0.5" cy="1336" cx="518.9" r="36.612" fill="#FFF"/><polygon id="3" points="335.03,1526.2,343.68,1472.9,319.55,1468.9,323.26,1446.1,246.64,1433.7,235.96,1499.5,325.47,1585.1,334.55,1529.2,333.34,1529,333.82,1526,335.02,1526.3" fill="#FFF"/><polygon id="5" points="160.11,1426.9,233.33,1496.9,263.03,1313.8,180.79,1299.4,160.11,1426.9" fill="#FFF"/><polygon id="1" points="368.18,1453,467.32,1469.1,478.35,1405.8,440.22,1346.4,387.28,1335.7,368.17,1453" fill="#FFF"/><polygon id="2" fill-opacity="0.5" points="466.8,1472,367.7,1455.9,364.4,1476.2,346.65,1473.3,338,1526.7,454,1545.5" fill="#FFF"/><polygon id="137" points="337.52,1529.6,328.11,1587.6,401.62,1658,440.29,1624.2,453.49,1548.4,337.52,1529.6" fill="#FFF"/><polygon id="6" points="177.83,1298.9,63.07,1278.8,53.555,1325.3,157.47,1424.4,177.82,1298.9" fill="#FFF"/><circle id="circle135" fill-opacity="0.5" cy="594.56" cx="641.83" r="61.077" fill="#FFF"/><polygon id="59" points="816.85,445.06,728.71,543.03,739.71,571.57,867.2,545.55,816.84,445.07" fill="#FFF"/><polygon id="26" points="566.2,527.24,603.13,500.5,560.57,381.54,464.79,452.33,566.2,527.24" fill="#FFF"/><polygon id="27" points="462.33,455.49,415.23,563.84,539.91,585.79,563.63,530.32,462.33,455.49" fill="#FFF"/><polygon id="58" points="740.49,575.5,742,592.92,738.2,620.34,869.31,643.06,872.49,594.56,868.03,549.46,740.5,575.49" fill="#FFF"/><polygon id="134" fill-opacity="0.5" points="672.71,1386.4,658.36,1475,739.01,1488.3,739.61,1487,740.36,1487.4,754.37,1400.9" fill="#FFF"/><polygon id="129" fill-opacity="0.5" points="975.03,1440.1,960.64,1529,974.88,1546.6,1051.1,1497.6,1059,1455" fill="#FFF"/><polygon id="132" fill-opacity="0.5" points="847.91,1417.5,832.05,1515.4,914.11,1528.9,929.79,1432.1" fill="#FFF"/><polygon id="144" fill-opacity="0.5" points="1048.3,1521.7,986.79,1561.2,1044,1631.7,1077.1,1630.7,1112.1,1603.8" fill="#FFF"/><polygon id="130" fill-opacity="0.5" points="1038.6,1631.9,959.73,1534.6,955.53,1560.5,938.8,1557.8,926.19,1635.6" fill="#FFF"/><polygon id="133" fill-opacity="0.5" points="843.74,1416.8,758.53,1401.6,744.34,1489.3,768.38,1500.9,770.7,1498.7,820.32,1561.4" fill="#FFF"/><polygon id="polygon161" fill-opacity="0.5" points="765.05,1504,742.59,1493.1,517.71,1456.1,494.88,1576.9,535.34,1554.3,580.54,1528.2,641.92,1530,790.54,1637.9,805.76,1635.6,732.78,1533.9" fill="#FFF"/><polygon id="131" fill-opacity="0.5" points="934.62,1557.1,910.19,1553.1,913.43,1533.1,831.38,1519.6,823.88,1565.9,880.25,1637.1,921.88,1635.8" fill="#FFF"/><polygon id="128" fill-opacity="0.5" points="1148.9,1471,1079.5,1458.7,1068.3,1518.8,1126,1593.1,1129.5,1590.3" fill="#FFF"/><polygon id="135" points="654.18,1474.3,668.54,1385.6,591.53,1371.9,525.36,1415.7,518.5,1452,654.18,1474.3" fill="#FFF"/><polygon id="127" fill-opacity="0.5" points="1153,1471.7,1134.4,1586.6,1259.3,1490.6" fill="#FFF"/><polygon id="110" points="1347.1,360.48,1256.7,392.33,1275.6,463.69,1379.8,440,1374.8,423.78,1395.1,417.45,1379.8,352.35,1354.4,371.66,1347.1,360.49" fill="#FFF"/><polygon id="109" points="1380.6,442.9,1276.2,466.64,1287,546.31,1395.1,537.05,1380.6,442.9" fill="#FFF"/><polygon id="108" points="1394.2,629.76,1395.6,594.57,1395.3,540.05,1287.2,549.3,1288.8,594.57,1288.1,625.33,1394.2,629.76" fill="#FFF"/><polygon id="111" points="1345.4,357.92,1268.6,261.69,1212.8,288.99,1255.8,389.48,1345.3,357.93" fill="#FFF"/><polygon id="107" points="1287.9,628.33,1279.2,706.47,1384.7,723.07,1394,632.76,1287.9,628.33" fill="#FFF"/><polygon id="90" points="1176.3,613,1168.3,689,1276.3,706.01,1285.6,613,1176.3,613" fill="#FFF"/><polygon id="89" points="1173.6,538.03,1176.6,594.57,1176.3,610.01,1285.7,610.01,1285.9,594.57,1282.1,523.99,1173.6,538.04" fill="#FFF"/><polygon id="88" points="1281.7,521,1268.7,445.97,1162.4,471.94,1173.3,535.04,1281.7,521" fill="#FFF"/><polygon id="86" points="1245.3,368.35,1210.1,290.29,1111.5,338.57,1143,407.56,1245.4,368.34" fill="#FFF"/><polygon id="87" points="1144,410.37,1161.8,469.02,1268.1,443.05,1246.3,371.16,1143.9,410.37" fill="#FFF"/><polygon id="142" fill-opacity="0.5" points="1268.4,60.211,1160.8,81.687,1282.9,242.45,1319.7,193.1,1325.9,180.64,1287.4,129.94,1286.4,130.19,1285.8,127.94,1284.9,126.63,1285.4,126.21" fill="#FFF"/><polygon id="141" points="1157.5,82.306,1051.2,101.13,1187.1,256.1,1233.6,233,1252.3,268,1268.6,261.68,1281,244.95,1157.4,82.311" fill="#FFF"/><polygon id="139" points="1129,180.53,1067.6,117.96,994.25,199.41,1045.9,254,1129,180.53" fill="#FFF"/><polygon id="138" points="1065.3,115.98,1048.4,101.62,978.53,114,904.73,132,992.06,197.35,1065.3,115.99" fill="#FFF"/><polygon id="140" points="1130.9,182.8,1047.8,256.27,1088.8,308.05,1183.5,257.89,1185.2,257.07,1130.9,182.8" fill="#FFF"/><polygon id="115" points="1436,673.72,1557.2,679.92,1557.2,679.43,1560.2,679.59,1560.2,680.07,1569.1,680.53,1571.2,593.08,1438.3,592.9,1436,673.7" fill="#FFF"/><polygon id="113" points="1499.6,438.99,1425.2,456.44,1434.2,507.98,1573.5,496.23,1575.9,394.27,1495,416.28,1499.5,438.98" fill="#FFF"/><polygon id="114" points="1438.3,589.9,1571.3,590.08,1573.4,499.25,1434.5,510.97,1438.2,589.91" fill="#FFF"/><polygon id="136" fill-opacity="0.5" points="1495,412.97,1494.4,413.1,1494.5,413.34,1576,391.14,1580.5,200.29,1464.9,288.75" fill="#FFF"/><polygon id="112" fill-opacity="0.5" points="1462.3,290.75,1384.7,350.14,1399.9,417.94,1488.7,399.86" fill="#FFF"/><polygon id="117" fill-opacity="0.5" points="1560.1,683.07,1555.9,764.26,1655.8,762.57,1569.6,683.56" fill="#FFF"/><polygon id="116" points="1557.1,682.92,1435.8,676.72,1425.3,741.64,1553,763.87,1557.1,682.92" fill="#FFF"/><polygon id="10" fill-opacity="0.5" points="177.46,974.84,144.49,1055.6,282.95,1078.7,297.32,994.81" fill="#FFF"/><polygon id="9" fill-opacity="0.5" points="282.44,1081.7,143.33,1058.5,130.49,1089.9,91.989,1128.9,269.29,1158.4" fill="#FFF"/><polygon id="7" fill-opacity="0.5" points="150.68,1244.4,167.32,1144.5,89.408,1131.5,88.752,1132.2,72.01,1232.7" fill="#FFF"/><polygon id="15" fill-opacity="0.5" points="357.53,643.31,371.98,558.97,251.99,546.78,240.58,623.82" fill="#FFF"/><polygon id="11" fill-opacity="0.5" points="201.39,888.66,194.99,931.88,178.62,972,297.83,991.86,312.34,907.15" fill="#FFF"/><polygon id="8" fill-opacity="0.5" points="170.28,1145,153.65,1244.8,251.99,1259.4,268.78,1161.4" fill="#FFF"/><polygon id="14" fill-opacity="0.5" points="240.14,626.79,227.51,712.15,342.46,731.3,357.03,646.27" fill="#FFF"/><polygon id="13" fill-opacity="0.5" points="227.07,715.11,214.49,800.14,327.44,818.96,341.96,734.25" fill="#FFF"/><polygon id="12" fill-opacity="0.5" points="214.05,803.11,201.83,885.7,312.84,904.19,326.94,821.92" fill="#FFF"/><polygon id="32" fill-opacity="0.5" points="436.64,1023.1,451.07,939.18,354.08,922.49,339.61,1006.4" fill="#FFF"/><polygon id="33" fill-opacity="0.5" points="421.88,1108.8,436.13,1026,339.1,1009.4,324.82,1092.1" fill="#FFF"/><polygon id="34" fill-opacity="0.5" points="406.77,1196.7,421.38,1111.8,324.31,1095.1,309.67,1180" fill="#FFF"/><polygon id="30" fill-opacity="0.5" points="466.31,850.6,480.92,765.68,384,749,369.35,833.91" fill="#FFF"/><polygon id="29" fill-opacity="0.5" points="496.96,672.44,400.08,655.77,384.51,746.05,481.43,762.72" fill="#FFF"/><polygon id="31" fill-opacity="0.5" points="451.58,936.22,465.8,853.55,368.84,836.87,354.59,919.54" fill="#FFF"/><polygon id="37" fill-opacity="0.5" points="526.31,1129.8,424.33,1112.3,409.73,1197.2,511.67,1214.7" fill="#FFF"/><polygon id="28" fill-opacity="0.5" points="525.83,674.36,538.04,599.99,412.8,578.39,400.59,652.81" fill="#FFF"/><polygon id="42" fill-opacity="0.5" points="499.92,672.95,484.39,763.23,586.51,780.8,602.08,690.52" fill="#FFF"/><polygon id="35" fill-opacity="0.5" points="406.26,1199.6,309.16,1182.9,292.8,1277.8,389.93,1294.6" fill="#FFF"/><polygon id="36" points="409.22,1200.1,392.89,1295,446.51,1304.3,503.38,1262.8,511.16,1217.6,409.21,1200.1" fill="#FFF"/><polygon id="38" fill-opacity="0.5" points="439.08,1026.6,424.84,1109.3,526.82,1126.9,541.1,1044.1" fill="#FFF"/><polygon id="41" fill-opacity="0.5" points="483.88,766.19,469.27,851.1,571.35,868.67,586,783.76" fill="#FFF"/><polygon id="39" fill-opacity="0.5" points="454.03,939.69,439.59,1023.6,541.61,1041.2,556.08,957.24" fill="#FFF"/><polygon id="40" fill-opacity="0.5" points="468.76,854.06,454.54,936.73,556.59,954.29,570.84,871.62" fill="#FFF"/><polygon id="46" fill-opacity="0.5" points="682.78,1064.6,697.8,979.33,600.86,964.27,586.15,1049.5" fill="#FFF"/><polygon id="47" fill-opacity="0.5" points="667.56,1150.9,682.26,1067.5,585.64,1052.5,571.24,1136" fill="#FFF"/><polygon id="48" fill-opacity="0.5" points="652.17,1238.2,667.04,1153.9,570.73,1138.9,556.33,1222.4" fill="#FFF"/><polygon id="45" fill-opacity="0.5" points="698.32,976.38,712.87,893.84,615.62,878.73,601.37,961.32" fill="#FFF"/><polygon id="44" fill-opacity="0.5" points="713.39,890.88,727.74,809.44,630.14,794.56,616.13,875.77" fill="#FFF"/><polygon id="43" fill-opacity="0.5" points="645.96,702.87,630.65,791.6,728.26,806.49,743.38,720.72" fill="#FFF"/><polygon id="57" fill-opacity="0.5" points="850.96,737.38,867.21,648.33,738.21,625.33,722.01,713.4" fill="#FFF"/><polygon id="56" fill-opacity="0.5" points="746.33,721.26,731.23,806.94,836.2,822.94,850.45,740.34" fill="#FFF"/><polygon id="55" fill-opacity="0.5" points="730.71,809.89,716.35,891.34,821.58,907.69,835.69,825.9" fill="#FFF"/><polygon id="52" fill-opacity="0.5" points="685.22,1068,670.52,1151.4,776.69,1167.9,791.09,1084.4" fill="#FFF"/><polygon id="51" fill-opacity="0.5" points="776.18,1170.8,670,1154.3,655.13,1238.7,761.46,1256.2" fill="#FFF"/><polygon id="53" fill-opacity="0.5" points="700.76,979.79,685.74,1065,791.6,1081.5,806.31,996.19" fill="#FFF"/><polygon id="54" fill-opacity="0.5" points="715.83,894.3,701.28,976.84,806.82,993.23,821.07,910.64" fill="#FFF"/><polygon id="50" fill-opacity="0.5" points="654.61,1241.6,637.68,1337.6,744.25,1355.9,760.95,1259.2" fill="#FFF"/><polygon id="49" points="651.65,1241.2,555.82,1225.4,548.72,1266.6,593.85,1330,634.68,1337.1,651.65,1241.3" fill="#FFF"/><polygon id="70" fill-opacity="0.5" points="911.35,1276.9,802.52,1259.9,785.75,1362.5,894.42,1380.3" fill="#FFF"/><polygon id="71" fill-opacity="0.5" points="916.66,1277.7,899.77,1381.2,1006,1398.5,1023,1294.4" fill="#FFF"/><polygon id="99" fill-opacity="0.5" points="1179.7,1320.7,1162.5,1424.1,1269,1441.5,1286,1337.4" fill="#FFF"/><polygon id="98" fill-opacity="0.5" points="1174.4,1319.9,1065.5,1302.9,1048.8,1405.5,1157.5,1423.3" fill="#FFF"/><polygon id="25" points="653.86,493.08,678.74,369.11,642.44,366.21,563.47,380.34,605.71,498.42,640.45,492.18,653.86,493.08" fill="#FFF"/><polygon id="24" points="776.75,410.18,682.14,369.71,657.27,493.65,690.73,505.8,776.75,410.18,776.75,410.18" fill="#FFF"/><rect id="4" fill-opacity="0.5" transform="matrix(0.98592236,0.16720379,-0.16720379,0.98592236,0,0)" height="115.85" width="75.511" y="1252.2" x="482.68" fill="#FFF"/><polygon id="120" fill-opacity="0.5" points="536.66,440.55,505.65,435.63,500.31,472.11,530.29,477.43" transform="matrix(2.9318499,0,0,2.9318499,-77.069527,-421.54661)" fill="#FFF"/><polygon id="121" fill-opacity="0.5" points="532.47,478.43,538.36,479.45,537.44,486.03,561.44,489.48,577.15,448.27,538.96,440.99" transform="matrix(2.9318499,0,0,2.9318499,-77.069527,-421.54661)" fill="#FFF"/><polygon id="123" fill-opacity="0.5" points="527.11,493.38,495.46,488.47,490.74,517.23,521.82,522.05" transform="matrix(2.9318499,0,0,2.9318499,-73.069527,-421.54661)" fill="#FFF"/><polygon id="122" fill-opacity="0.5" points="537.27,487.78,536.11,494.78,528.49,493.6,523.2,522.26,531.81,523.6,531.8,523.63,545.72,525.82,552.22,513.81,560.42,491.32" transform="matrix(2.9318499,0,0,2.9318499,-73.069527,-421.54661)" fill="#FFF"/><polygon id="125" fill-opacity="0.5" points="530.29,554.33,524.97,553.53,524.97,553.5,485.82,547.39,481,577.05,515.12,582.41,522.46,568.86,522.46,568.84" transform="matrix(2.833648,0,0,2.833648,-23.574218,-371.58766)" fill="#FFF"/><polygon id="124" fill-opacity="0.5" points="534.07,525.09,534.09,525.01,490.6,518.27,486,546.31,527.07,552.68,527.06,552.75,530.83,553.36,545.18,526.83" transform="matrix(2.833648,0,0,2.833648,-23.574218,-371.58766)" fill="#FFF"/><polygon id="143" fill-opacity="0.5" points="457.09,144.34,463.28,168.42,478.05,187.48,478.23,187.26,518.97,151.31,518.64,149.15,558.48,122.91,518.21,131.18,518.17,131.24,458.21,144.12" transform="matrix(2.6630472,0,0,2.6630472,53.832912,-324.46631)" fill="#FFF"/><polygon id="16" fill-opacity="0.5" points="96.632,277.45,91.473,314.7,133.73,323.87,144.02,293.88" transform="matrix(2.7380507,0,0,2.7380507,7.7948442,-339.73989)" fill="#FFF"/><polygon id="126" fill-opacity="0.5" points="493.19,622.96,514.58,583.42,480.82,578.13,470.18,643.31,470.22,643.35" transform="matrix(2.8591402,0,0,2.8591402,-35.893279,-386.79532)" fill="#FFF"/></svg>
